<svg xmlns="http://www.w3.org/2000/svg" viewBox="0 0 345.06 113.66"><g id="Layer_2" data-name="Layer 2"><g id="Layer_1-2" data-name="Layer 1"><path d="M28.35,0c1,0,1.53.33,1.53,1s-.53,1-1.6,1S26.67,4.1,26.67,8.38v95q0,6.42,1.61,6.42c1.07,0,1.6.33,1.6,1s-.51,1-1.53,1H1.4c-.94,0-1.4-.33-1.4-1s.51-1,1.54-1,1.53-2.14,1.53-6.42V8.38Q3.07,2,1.54,2C.51,2,0,1.63,0,1S.46,0,1.4,0Z"/><path d="M73.33.28V103.33q0,6.42,1.54,6.42c1,0,1.53.33,1.53,1s-.56,1-1.67,1H47.92c-.94,0-1.4-.33-1.4-1s.49-1,1.47-1,1.46-2.14,1.46-6.42V8.52Q49.45,2.1,48,2.1c-1,0-1.47-.33-1.47-1S47,.28,47.92.28Zm20.53,0h.28q13.39.84,21.64,6.7,10.05,7.13,10,20.53,0,11.6-9.91,18.71-8.39,6.15-20.25,6.84v.28q13.2,1.13,21.27,8.24,8.9,8.1,8.89,22.06v18c0,4.37.75,7.12,2.24,8.23l1.81,1c.56.28.84.61.84,1s-.89.88-2.67,1.53a21.79,21.79,0,0,1-3.64.28q-10.66,0-16.7-5.58t-6-14.94v-21q-.29-14.52-8.27-17.31C91.84,54.6,91,54,90.92,53.06c0-.28.79-.74,2.38-1.39q9.21-3.08,9.21-24.16T93.44,3.07c-1.77-.74-2.66-1.39-2.66-1.95C91,.56,92,.28,93.86.28Z"/><path d="M171.77,0V111.71H146.5c-.93,0-1.4-.33-1.4-1s.51-1,1.54-1,1.53-2.14,1.53-6.42V8.38q0-6.42-1.53-6.42c-1,0-1.54-.33-1.54-1s.47-1,1.4-1Zm28.35,38.54c.65.09,1,.65,1,1.68V67.58c0,1.77-.38,2.66-1.12,2.66a85.22,85.22,0,0,0-4.89-7.12q-5.73-7.41-9.77-8.38c-1.68-.28-2.56-.75-2.66-1.4q0-.42,2.52-1.53,9.76-2.23,13-11.45c.47-1.12,1.07-1.73,1.82-1.82ZM221.9,79.17q1.26,0,1.26,2.52v28.9c0,.75-.51,1.12-1.54,1.12H193.56c-2.52,0-3.77-.37-3.77-1.12,0-.28,1.11-.74,3.35-1.39a30.73,30.73,0,0,0,19-11,38.84,38.84,0,0,0,8-16.47C220.46,80.11,221.06,79.27,221.9,79.17ZM216.46,0c.93,0,1.39.42,1.39,1.26v28.2q0,2.52-1.11,2.52c-.38,0-.89-.89-1.54-2.66a34,34,0,0,0-7-17,25.37,25.37,0,0,0-14.94-9.78c-2-.46-3-.93-3.21-1.39,0-.75,1-1.12,3.07-1.12Z"/><path d="M246.9,83.22c.37,0,.83.94,1.39,2.8q1.4,20.66,9.5,23c1.49.46,2.28.93,2.37,1.39.09.75-.65,1.12-2.23,1.12H239.08c-1.59,0-2.38-.37-2.38-1.12.47-.18,1.65-.72,3.56-1.6s3.24-2.94,4-6.15,1.26-8.63,1.54-16.26C245.78,84.39,246.15,83.32,246.9,83.22ZM269.8,0a1.83,1.83,0,0,1,1.95,1.26l25.14,94.53-3.77,15.5c-.19,1-.7,1.54-1.54,1.54H280c-.75,0-1.26-.47-1.54-1.4L248.15,5.87Q247,2,244.38,2c-1.12,0-1.67-.33-1.67-1s.55-1,1.67-1Zm73.72,0c1,0,1.54.33,1.54,1s-.54,1-1.61,1-1.6,2.14-1.6,6.42v94.81c0,4.28.53,6.43,1.6,6.43s1.61.32,1.61,1-.51,1-1.54,1H316.57c-.93,0-1.39-.33-1.39-1s.51-1,1.53-1,1.54-2.15,1.54-6.43V1.26c0-.84.6-1.26,1.82-1.26Z"/></g></g></svg>